<?xml version="1.0" encoding="iso-8859-1"?>
<!-- Generator: Adobe Illustrator 19.0.0, SVG Export Plug-In . SVG Version: 6.00 Build 0)  -->
<svg version="1.1" id="Capa_1" xmlns="http://www.w3.org/2000/svg" xmlns:xlink="http://www.w3.org/1999/xlink" x="0px" y="0px"
	 viewBox="0 0 512.029 512.029" style="enable-background:new 0 0 512.029 512.029;" xml:space="preserve">
<path style="fill:#FFC107;" d="M256.014,0C150.02,0.106,64.12,86.005,64.014,192c0,133.088,173.312,307.936,180.672,315.328
	c6.24,6.256,16.371,6.269,22.627,0.029c0.01-0.01,0.019-0.019,0.029-0.029c7.36-7.392,180.672-182.24,180.672-315.328
	C447.908,86.005,362.009,0.106,256.014,0z"/>
<circle style="fill:#FAFAFA;" cx="256.014" cy="192" r="96"/>
<path d="M256.014,512c-4.246,0.008-8.322-1.673-11.328-4.672C237.326,499.936,64.014,325.088,64.014,192
	c0-106.039,85.961-192,192-192s192,85.961,192,192c0,133.088-173.312,307.936-180.672,315.328
	C264.336,510.327,260.261,512.008,256.014,512z M256.014,32c-88.322,0.106-159.894,71.678-160,160
	c0,101.664,121.792,240,160,280.864c38.208-40.864,160-179.296,160-280.864C415.909,103.678,344.336,32.106,256.014,32z"/>
<path d="M256.014,288c-53.019,0-96-42.981-96-96s42.981-96,96-96s96,42.981,96,96S309.034,288,256.014,288z M256.014,128
	c-35.346,0-64,28.654-64,64s28.654,64,64,64s64-28.654,64-64S291.361,128,256.014,128z"/>
<g>
</g>
<g>
</g>
<g>
</g>
<g>
</g>
<g>
</g>
<g>
</g>
<g>
</g>
<g>
</g>
<g>
</g>
<g>
</g>
<g>
</g>
<g>
</g>
<g>
</g>
<g>
</g>
<g>
</g>
</svg>
