<?xml version="1.0" encoding="UTF-8" standalone="no" ?>
<!DOCTYPE svg PUBLIC "-//W3C//DTD SVG 1.1//EN" "http://www.w3.org/Graphics/SVG/1.1/DTD/svg11.dtd">
<svg xmlns="http://www.w3.org/2000/svg" xmlns:xlink="http://www.w3.org/1999/xlink" version="1.1" width="350" height="350" viewBox="0 0 350 350" xml:space="preserve">
<desc>Created with Fabric.js 1.7.22</desc>
<defs>
</defs>
<g id="icon" style="stroke: none; stroke-width: 1; stroke-dasharray: none; stroke-linecap: butt; stroke-linejoin: miter; stroke-miterlimit: 10; fill: none; fill-rule: nonzero; opacity: 1;" transform="translate(-1.9444444444444287 -1.9444444444444287) scale(3.89 3.89)" >
	<path d="M 44.954 53.53 c -1.615 0 -3.213 -0.405 -4.669 -1.202 c -2.725 -1.49 -4.591 -4.221 -4.993 -7.304 c -0.143 -1.095 0.63 -2.099 1.725 -2.242 c 1.096 -0.135 2.1 0.63 2.242 1.725 c 0.237 1.82 1.338 3.432 2.946 4.311 c 2.785 1.524 6.29 0.499 7.813 -2.286 c 0.738 -1.349 0.907 -2.904 0.476 -4.38 c -0.433 -1.476 -1.413 -2.695 -2.762 -3.433 l -7.417 -4.259 c -4.684 -2.563 -6.421 -8.503 -3.839 -13.222 c 1.251 -2.286 3.317 -3.948 5.818 -4.68 c 2.5 -0.731 5.137 -0.446 7.423 0.805 c 2.725 1.491 4.591 4.221 4.993 7.303 c 0.143 1.095 -0.629 2.099 -1.725 2.242 c -1.087 0.141 -2.099 -0.629 -2.242 -1.725 c -0.237 -1.82 -1.339 -3.432 -2.946 -4.312 c -1.35 -0.738 -2.905 -0.906 -4.38 -0.475 c -1.476 0.432 -2.695 1.413 -3.433 2.761 c -1.524 2.785 -0.498 6.29 2.286 7.813 l 7.417 4.259 c 2.25 1.231 3.912 3.297 4.645 5.798 c 0.731 2.501 0.446 5.138 -0.805 7.424 c -1.252 2.286 -3.318 3.948 -5.818 4.681 C 46.8 53.398 45.874 53.53 44.954 53.53 z" style="stroke: none; stroke-width: 1; stroke-dasharray: none; stroke-linecap: butt; stroke-linejoin: miter; stroke-miterlimit: 10; fill: rgb(0,0,0); fill-rule: nonzero; opacity: 1;" transform=" matrix(1 0 0 1 0 0) " stroke-linecap="round" />
	<path d="M 45 20.164 c -1.104 0 -2 -0.896 -2 -2 v -5.192 c 0 -1.104 0.896 -2 2 -2 s 2 0.896 2 2 v 5.192 C 47 19.268 46.104 20.164 45 20.164 z" style="stroke: none; stroke-width: 1; stroke-dasharray: none; stroke-linecap: butt; stroke-linejoin: miter; stroke-miterlimit: 10; fill: rgb(0,0,0); fill-rule: nonzero; opacity: 1;" transform=" matrix(1 0 0 1 0 0) " stroke-linecap="round" />
	<path d="M 45 58.72 c -1.104 0 -2 -0.896 -2 -2 v -5.192 c 0 -1.104 0.896 -2 2 -2 s 2 0.896 2 2 v 5.192 C 47 57.824 46.104 58.72 45 58.72 z" style="stroke: none; stroke-width: 1; stroke-dasharray: none; stroke-linecap: butt; stroke-linejoin: miter; stroke-miterlimit: 10; fill: rgb(0,0,0); fill-rule: nonzero; opacity: 1;" transform=" matrix(1 0 0 1 0 0) " stroke-linecap="round" />
	<path d="M 64.299 69.847 H 26.586 c -1.104 0 -2 -0.896 -2 -2 s 0.896 -2 2 -2 h 37.713 c 1.104 0 2 0.896 2 2 S 65.403 69.847 64.299 69.847 z" style="stroke: none; stroke-width: 1; stroke-dasharray: none; stroke-linecap: butt; stroke-linejoin: miter; stroke-miterlimit: 10; fill: rgb(0,0,0); fill-rule: nonzero; opacity: 1;" transform=" matrix(1 0 0 1 0 0) " stroke-linecap="round" />
	<path d="M 53.011 90 c -0.499 0 -0.998 -0.186 -1.385 -0.557 L 45 83.084 l -6.626 6.359 c -0.773 0.742 -1.996 0.742 -2.77 0 l -6.626 -6.359 l -6.626 6.359 c -0.773 0.742 -1.996 0.742 -2.77 0 l -8.011 -7.688 c -0.393 -0.378 -0.615 -0.898 -0.615 -1.443 V 2 c 0 -1.104 0.896 -2 2 -2 h 64.087 c 1.104 0 2 0.896 2 2 v 78.313 c 0 0.545 -0.223 1.065 -0.615 1.443 l -8.011 7.688 c -0.773 0.742 -1.996 0.742 -2.77 0 l -6.627 -6.359 l -6.626 6.359 C 54.009 89.814 53.51 90 53.011 90 z M 61.021 78.313 c 0.499 0 0.998 0.186 1.385 0.557 l 6.627 6.359 l 6.011 -5.769 V 4 H 14.957 v 75.46 l 6.011 5.769 l 6.626 -6.359 c 0.773 -0.742 1.996 -0.742 2.77 0 l 6.626 6.359 l 6.626 -6.359 c 0.773 -0.742 1.996 -0.742 2.77 0 l 6.626 6.359 l 6.626 -6.359 C 60.023 78.498 60.522 78.313 61.021 78.313 z M 77.044 80.313 h 0.01 H 77.044 z" style="stroke: none; stroke-width: 1; stroke-dasharray: none; stroke-linecap: butt; stroke-linejoin: miter; stroke-miterlimit: 10; fill: rgb(0,0,0); fill-rule: nonzero; opacity: 1;" transform=" matrix(1 0 0 1 0 0) " stroke-linecap="round" />
</g>
</svg>